<?xml version="1.0" encoding="UTF-8"?><svg id="Layer_1" xmlns="http://www.w3.org/2000/svg" viewBox="0 0 256 67"><g><path d="M1.11,15.24H5.85V6.14H14.63V15.24h5.98v6.89h-5.98v17.29c0,2.27,.59,3.25,3.32,3.25,.78,0,1.1,0,2.02-.13v6.04c-1.76,.59-4.23,.65-5.4,.65-6.5,0-8.71-2.6-8.71-8.84V22.13H1.11v-6.89Z"/><path d="M32.31,34.09c0,4.1,1.56,8.52,6.57,8.52,4.03,0,5.27-2.54,5.79-4.03h8.65c-1.62,5.59-5.59,10.92-14.69,10.92-10.73,0-15.21-7.35-15.21-17.36,0-8.32,4.16-17.55,15.6-17.55s14.69,8.06,14.69,16.77c0,.46-.06,2.21-.13,2.73h-21.26Zm12.81-5.79c-.13-3.77-1.69-7.08-6.24-7.08-5.01,0-6.24,4.1-6.44,7.08h12.68Z"/><path d="M88.34,37.15c-.98,6.76-5.27,12.35-14.69,12.35-10.33,0-15.15-6.37-15.15-17.36s5.92-17.55,15.67-17.55c10.99,0,13.98,7.93,14.17,12.61h-8.84c-.33-3.06-1.69-5.85-5.53-5.85-4.62,0-6.5,4.29-6.5,10.47,0,7.87,2.34,10.99,6.37,10.99,3.77,0,5-2.47,5.72-5.66h8.78Z"/><path d="M103.04,1.65V19.34c1.56-2.79,4.55-4.75,9.36-4.75,5.98,0,10.6,3.38,10.6,12.22v22.1h-8.71V28.18c0-3.64-1.17-6.31-5.33-6.31s-5.92,2.93-5.92,8.32v18.72h-8.84V1.65h8.84Z"/><path d="M131.32,25.77c0-6.96-.06-9.04-.13-10.53h8.58c.13,.65,.33,2.8,.33,4.36,1.37-2.6,4.55-5.01,9.36-5.01,7.08,0,10.66,4.55,10.66,12.29v22.04h-8.84V28.57c0-3.84-.98-6.7-5.14-6.7s-5.98,2.34-5.98,8.26v18.79h-8.84V25.77Z"/><path d="M198.4,31.62c0,9.82-4.68,17.94-16.12,17.94s-15.86-8.65-15.86-17.75c0-8.39,4.75-17.23,16.32-17.23,10.79,0,15.67,7.93,15.67,17.03Zm-23.01-.06c0,7.22,2.47,11.05,7.22,11.05,4.42,0,6.89-3.83,6.89-10.92,0-6.7-2.34-10.14-7.15-10.14-4.49,0-6.96,3.9-6.96,10.01Z"/><path d="M201.26,15.24h4.75V6.14h8.77V15.24h5.98v6.89h-5.98v17.29c0,2.27,.59,3.25,3.32,3.25,.78,0,1.1,0,2.02-.13v6.04c-1.76,.59-4.23,.65-5.4,.65-6.5,0-8.71-2.6-8.71-8.84V22.13h-4.75v-6.89Z"/><path d="M232.47,34.09c0,4.1,1.56,8.52,6.57,8.52,4.03,0,5.27-2.54,5.79-4.03h8.65c-1.62,5.59-5.59,10.92-14.69,10.92-10.73,0-15.21-7.35-15.21-17.36,0-8.32,4.16-17.55,15.6-17.55s14.69,8.06,14.69,16.77c0,.46-.06,2.21-.13,2.73h-21.26Zm12.81-5.79c-.13-3.77-1.69-7.08-6.24-7.08-5.01,0-6.24,4.1-6.44,7.08h12.68Z"/></g><g><path d="M1.02,56.47h1.33v-2.42h1.37v2.42h1.68v1.12h-1.68v5.21c0,.71,.18,1,.89,1,.23,0,.46-.03,.64-.07v1.04c-.31,.11-.81,.13-1.09,.13-1.22,0-1.81-.46-1.81-1.84v-5.48H1.02v-1.12Z"/><path d="M7.66,60.9c0,1.68,.71,2.93,2.17,2.93,1.35,0,1.76-.94,1.92-1.37h1.33c-.26,1.04-1.09,2.52-3.32,2.52-2.6,0-3.49-2.06-3.49-4.36,0-2.06,1-4.31,3.57-4.31s3.37,2.04,3.37,3.96v.62H7.66Zm4.21-.99c-.03-1.43-.61-2.5-2.06-2.5-1.65,0-2.04,1.5-2.12,2.5h4.18Z"/><path d="M21.43,62.15c-.33,1.63-1.37,2.83-3.36,2.83-2.34,0-3.52-1.56-3.52-4.34,0-2.42,1.22-4.33,3.6-4.33,2.22,0,3.14,1.53,3.26,2.91h-1.37c-.16-.95-.69-1.79-1.91-1.79-1.53,0-2.19,1.33-2.19,3.17,0,2.14,.77,3.26,2.17,3.26,1.15,0,1.65-.72,1.94-1.71h1.37Z"/><path d="M24.48,52.84v4.84c.4-.81,1.23-1.37,2.48-1.37s2.62,.62,2.62,2.99v5.51h-1.35v-5.28c0-1.27-.49-2.02-1.71-2.02-1.35,0-2.04,.89-2.04,2.55v4.75h-1.37v-11.98h1.37Z"/><path d="M31.98,59.09c0-1.74-.02-2.25-.03-2.62h1.33c.03,.16,.07,.95,.05,1.3,.35-.74,1.1-1.46,2.47-1.46,1.55,0,2.65,.87,2.65,3.12v5.38h-1.37v-5.17c0-1.22-.41-2.14-1.66-2.14-1.48,0-2.07,1.1-2.07,2.85v4.46h-1.37v-5.72Z"/><path d="M40.85,54.6v-1.76h1.37v1.76h-1.37Zm0,1.88h1.37v8.34h-1.37v-8.34Z"/><path d="M50.93,62.15c-.33,1.63-1.37,2.83-3.36,2.83-2.34,0-3.52-1.56-3.52-4.34,0-2.42,1.22-4.33,3.6-4.33,2.22,0,3.14,1.53,3.26,2.91h-1.37c-.16-.95-.69-1.79-1.91-1.79-1.53,0-2.19,1.33-2.19,3.17,0,2.14,.77,3.26,2.17,3.26,1.15,0,1.65-.72,1.94-1.71h1.37Z"/><path d="M58.58,62.95c0,.58,.05,1.41,.12,1.86h-1.23c-.05-.3-.12-.74-.12-1.28-.33,.84-1.17,1.43-2.53,1.43-2.04,0-2.65-1.38-2.65-2.53,0-1.25,.81-2.65,3.78-2.65h1.28v-.81c0-.79-.23-1.61-1.65-1.61-1.2,0-1.63,.56-1.76,1.48h-1.33c.11-1.4,.92-2.53,3.14-2.53,1.74,0,2.94,.71,2.94,2.6v4.05Zm-1.32-2.19h-1.32c-2.02,0-2.4,.82-2.4,1.58,0,.82,.49,1.5,1.55,1.5,1.65,0,2.17-1.12,2.17-2.9v-.18Z"/><path d="M60.98,64.81v-11.98h1.37v11.98h-1.37Z"/><path d="M75.1,62.15c-.33,1.63-1.37,2.83-3.36,2.83-2.34,0-3.52-1.56-3.52-4.34,0-2.42,1.22-4.33,3.6-4.33,2.22,0,3.14,1.53,3.26,2.91h-1.37c-.16-.95-.69-1.79-1.91-1.79-1.53,0-2.19,1.33-2.19,3.17,0,2.14,.77,3.26,2.17,3.26,1.15,0,1.65-.72,1.94-1.71h1.37Z"/><path d="M83.69,60.5c0,2.42-1.05,4.46-3.73,4.46s-3.62-2.12-3.62-4.41,1.2-4.24,3.73-4.24c2.35,0,3.62,1.79,3.62,4.19Zm-5.94,.03c0,1.91,.79,3.29,2.29,3.29s2.24-1.35,2.24-3.31c0-1.83-.76-3.08-2.27-3.08s-2.25,1.27-2.25,3.09Z"/><path d="M85.51,59.07c0-1.48-.02-2.22-.03-2.6h1.33c.03,.23,.05,.89,.05,1.18,.39-.72,1.12-1.35,2.34-1.35,1.1,0,1.83,.49,2.14,1.43,.36-.76,1.2-1.43,2.47-1.43s2.5,.66,2.5,2.85v5.66h-1.35v-5.43c0-1.02-.33-1.89-1.51-1.89-1.3,0-1.84,1.09-1.84,2.42v4.9h-1.35v-5.49c0-1.04-.41-1.81-1.5-1.81-1.17,0-1.89,.89-1.89,2.55v4.75h-1.35v-5.74Z"/><path d="M98.7,59.07c0-1.48-.02-2.22-.03-2.6h1.33c.03,.23,.05,.89,.05,1.18,.39-.72,1.12-1.35,2.34-1.35,1.1,0,1.83,.49,2.14,1.43,.36-.76,1.2-1.43,2.47-1.43s2.5,.66,2.5,2.85v5.66h-1.35v-5.43c0-1.02-.33-1.89-1.51-1.89-1.3,0-1.84,1.09-1.84,2.42v4.9h-1.35v-5.49c0-1.04-.41-1.81-1.5-1.81-1.17,0-1.89,.89-1.89,2.55v4.75h-1.35v-5.74Z"/><path d="M118.11,62.46c0,1.04,.02,1.96,.03,2.35h-1.32c-.05-.23-.07-.74-.07-1.33-.38,.9-1.23,1.48-2.45,1.48-1.3,0-2.55-.62-2.55-2.88v-5.61h1.35v5.35c0,1.09,.35,1.96,1.61,1.96,1.18,0,2.01-.81,2.01-2.65v-4.66h1.38v5.99Z"/><path d="M120.51,59.09c0-1.74-.02-2.25-.03-2.62h1.33c.03,.16,.07,.95,.05,1.3,.35-.74,1.1-1.46,2.47-1.46,1.55,0,2.65,.87,2.65,3.12v5.38h-1.37v-5.17c0-1.22-.41-2.14-1.66-2.14-1.48,0-2.07,1.1-2.07,2.85v4.46h-1.37v-5.72Z"/><path d="M129.37,54.6v-1.76h1.37v1.76h-1.37Zm0,1.88h1.37v8.34h-1.37v-8.34Z"/><path d="M139.46,62.15c-.33,1.63-1.37,2.83-3.36,2.83-2.34,0-3.52-1.56-3.52-4.34,0-2.42,1.22-4.33,3.6-4.33,2.22,0,3.14,1.53,3.26,2.91h-1.37c-.16-.95-.69-1.79-1.91-1.79-1.53,0-2.19,1.33-2.19,3.17,0,2.14,.77,3.26,2.17,3.26,1.15,0,1.65-.72,1.94-1.71h1.37Z"/><path d="M147.1,62.95c0,.58,.05,1.41,.12,1.86h-1.23c-.05-.3-.12-.74-.12-1.28-.33,.84-1.17,1.43-2.53,1.43-2.04,0-2.65-1.38-2.65-2.53,0-1.25,.81-2.65,3.78-2.65h1.28v-.81c0-.79-.23-1.61-1.65-1.61-1.2,0-1.63,.56-1.76,1.48h-1.33c.11-1.4,.92-2.53,3.14-2.53,1.74,0,2.94,.71,2.94,2.6v4.05Zm-1.32-2.19h-1.32c-2.02,0-2.4,.82-2.4,1.58,0,.82,.49,1.5,1.55,1.5,1.65,0,2.17-1.12,2.17-2.9v-.18Z"/><path d="M148.25,56.47h1.33v-2.42h1.37v2.42h1.68v1.12h-1.68v5.21c0,.71,.18,1,.89,1,.23,0,.46-.03,.64-.07v1.04c-.31,.11-.81,.13-1.09,.13-1.22,0-1.81-.46-1.81-1.84v-5.48h-1.33v-1.12Z"/><path d="M154.07,54.6v-1.76h1.37v1.76h-1.37Zm0,1.88h1.37v8.34h-1.37v-8.34Z"/><path d="M164.62,60.5c0,2.42-1.05,4.46-3.73,4.46s-3.62-2.12-3.62-4.41,1.2-4.24,3.73-4.24c2.35,0,3.62,1.79,3.62,4.19Zm-5.94,.03c0,1.91,.79,3.29,2.29,3.29s2.24-1.35,2.24-3.31c0-1.83-.76-3.08-2.27-3.08s-2.25,1.27-2.25,3.09Z"/><path d="M166.44,59.09c0-1.74-.02-2.25-.03-2.62h1.33c.03,.16,.07,.95,.05,1.3,.35-.74,1.1-1.46,2.47-1.46,1.55,0,2.65,.87,2.65,3.12v5.38h-1.37v-5.17c0-1.22-.41-2.14-1.66-2.14-1.48,0-2.07,1.1-2.07,2.85v4.46h-1.37v-5.72Z"/><path d="M179.5,64.81v-7.22h-1.28v-1.12h1.28v-1.04c0-1.48,.51-2.73,2.25-2.73,.26,0,.59,.03,.79,.1v1.17c-.16-.05-.4-.08-.67-.08-.74,0-1.02,.49-1.02,1.48v1.1h1.56v1.12h-1.56v7.22h-1.35Z"/><path d="M190.34,60.5c0,2.42-1.05,4.46-3.73,4.46s-3.62-2.12-3.62-4.41,1.2-4.24,3.73-4.24c2.35,0,3.62,1.79,3.62,4.19Zm-5.94,.03c0,1.91,.79,3.29,2.29,3.29s2.24-1.35,2.24-3.31c0-1.83-.76-3.08-2.27-3.08s-2.25,1.27-2.25,3.09Z"/><path d="M192.16,59.3c0-1.33-.02-2.42-.03-2.83h1.33c.03,.4,.03,.92,.03,1.69,.39-1.04,1.32-1.83,2.7-1.84v1.41c-1.88,.07-2.67,1.17-2.67,2.98v4.1h-1.37v-5.51Z"/><path d="M200.47,56.47h1.33v-2.42h1.37v2.42h1.68v1.12h-1.68v5.21c0,.71,.18,1,.89,1,.23,0,.46-.03,.64-.07v1.04c-.31,.11-.81,.13-1.09,.13-1.22,0-1.81-.46-1.81-1.84v-5.48h-1.33v-1.12Z"/><path d="M207.57,52.84v4.84c.4-.81,1.23-1.37,2.48-1.37s2.62,.62,2.62,2.99v5.51h-1.35v-5.28c0-1.27-.49-2.02-1.71-2.02-1.35,0-2.04,.89-2.04,2.55v4.75h-1.37v-11.98h1.37Z"/><path d="M215.89,60.9c0,1.68,.71,2.93,2.17,2.93,1.35,0,1.76-.94,1.92-1.37h1.33c-.26,1.04-1.09,2.52-3.32,2.52-2.6,0-3.49-2.06-3.49-4.36,0-2.06,1-4.31,3.57-4.31s3.37,2.04,3.37,3.96v.62h-5.56Zm4.21-.99c-.03-1.43-.61-2.5-2.06-2.5-1.65,0-2.04,1.5-2.12,2.5h4.18Z"/><path d="M227.88,56.47c.95,3.67,1.53,5.84,1.73,6.94h.03c.2-1,.66-2.62,1.84-6.94h1.33c1.12,4.11,1.61,5.95,1.74,6.88h.02c.18-.92,.66-2.63,1.83-6.88h1.38l-2.53,8.34h-1.43c-.74-2.75-1.48-5.36-1.73-6.63h-.02c-.21,1.23-.97,3.8-1.79,6.63h-1.48l-2.39-8.34h1.46Z"/><path d="M239.95,60.9c0,1.68,.71,2.93,2.17,2.93,1.35,0,1.76-.94,1.92-1.37h1.33c-.26,1.04-1.09,2.52-3.32,2.52-2.6,0-3.49-2.06-3.49-4.36,0-2.06,1-4.31,3.57-4.31s3.37,2.04,3.37,3.96v.62h-5.56Zm4.21-.99c-.03-1.43-.61-2.5-2.06-2.5-1.65,0-2.04,1.5-2.12,2.5h4.18Z"/><path d="M247.3,52.84h1.37v4.79c.36-.66,1.13-1.32,2.5-1.32,2.02,0,3.21,1.66,3.21,4.08s-1.07,4.57-3.45,4.57c-1.28,0-1.96-.56-2.27-1.2,.02,.33-.02,.71-.05,1.05h-1.33c.02-.46,.03-1.33,.03-2.37v-9.61Zm3.54,4.66c-1.66,0-2.25,1.07-2.25,3.04s.48,3.24,2.2,3.24c1.5,0,2.19-1.38,2.19-3.34,0-1.76-.71-2.94-2.14-2.94Z"/></g></svg>